<svg width="30" height="21" viewBox="0 0 30 21" fill="none" xmlns="http://www.w3.org/2000/svg">
<path d="M22.2824 0.195761C19.4242 0.272074 17.2089 1.02489 15.0521 1.75295C12.7454 2.53051 10.5683 3.26373 7.55187 3.29364C5.53631 3.32457 3.51756 2.98632 1.53387 2.32014L0.125 1.84782V19.4636L0.832625 19.708C2.68031 20.3423 4.56944 20.7084 6.45006 20.795C6.74862 20.8084 7.04081 20.8156 7.32769 20.8156C10.529 20.8156 12.9802 19.9906 15.357 19.1945C17.8624 18.353 20.2254 17.5579 23.4501 17.7054C25.1593 17.7906 26.8464 18.1186 28.4576 18.6789L29.875 19.1656V1.54257L29.1759 1.29507C27.3679 0.656009 25.47 0.288773 23.5478 0.206074C23.1263 0.18791 22.7042 0.18447 22.2824 0.195761ZM22.3397 2.24382C22.701 2.23351 23.0707 2.23351 23.4543 2.24795C23.8517 2.26445 24.2491 2.29951 24.6454 2.34489C24.807 2.99194 25.2208 3.55299 25.7998 3.91011C26.3787 4.26723 27.0778 4.39262 27.75 4.25992V13.6464C27.4019 13.5776 27.0432 13.5774 26.6951 13.6459C26.3469 13.7143 26.0165 13.85 25.7235 14.0447C25.4304 14.2395 25.1807 14.4895 24.9891 14.7798C24.7975 15.0701 24.668 15.3948 24.6082 15.7346C24.2562 15.6995 23.9034 15.6741 23.5499 15.6583C19.9215 15.5036 17.2461 16.3895 14.66 17.2599C12.1514 18.1034 9.77462 18.9006 6.55206 18.7521C6.15071 18.7317 5.75024 18.6973 5.35144 18.6489C5.1884 18.0037 4.77452 17.4446 4.19643 17.0888C3.61835 16.733 2.92087 16.6081 2.25 16.7401V7.35367C2.60014 7.42283 2.96108 7.42252 3.3111 7.35275C3.66112 7.28298 3.99297 7.1452 4.28669 6.94769C4.58041 6.75019 4.82992 6.49705 5.0202 6.2035C5.21049 5.90996 5.33762 5.58208 5.39394 5.23961C6.12175 5.31282 6.84956 5.35511 7.57525 5.34376C10.9381 5.31076 13.3829 4.48473 15.7491 3.68654C17.8326 2.9822 19.8184 2.32014 22.3397 2.24382ZM22.9687 7.40626C22.5461 7.40626 22.1407 7.56924 21.8418 7.85933C21.5429 8.14943 21.375 8.54288 21.375 8.95314C21.375 9.36339 21.5429 9.75685 21.8418 10.0469C22.1407 10.337 22.5461 10.5 22.9687 10.5C23.3914 10.5 23.7968 10.337 24.0957 10.0469C24.3946 9.75685 24.5625 9.36339 24.5625 8.95314C24.5625 8.54288 24.3946 8.14943 24.0957 7.85933C23.7968 7.56924 23.3914 7.40626 22.9687 7.40626ZM7.03125 10.5C6.60856 10.5 6.20318 10.663 5.9043 10.9531C5.60541 11.2432 5.4375 11.6366 5.4375 12.0469C5.4375 12.4571 5.60541 12.8506 5.9043 13.1407C6.20318 13.4308 6.60856 13.5938 7.03125 13.5938C7.45394 13.5938 7.85931 13.4308 8.1582 13.1407C8.45709 12.8506 8.625 12.4571 8.625 12.0469C8.625 11.6366 8.45709 11.2432 8.1582 10.9531C7.85931 10.663 7.45394 10.5 7.03125 10.5Z" fill="white"/>
<path d="M16.5833 10.0417H14.4167C14.1293 10.0417 13.8538 9.94511 13.6506 9.7732C13.4475 9.60129 13.3333 9.36814 13.3333 9.12502C13.3333 8.88191 13.4475 8.64875 13.6506 8.47684C13.8538 8.30493 14.1293 8.20835 14.4167 8.20835H17.125C17.2687 8.20835 17.4064 8.25664 17.508 8.3426C17.6096 8.42855 17.6667 8.54513 17.6667 8.66669C17.6667 8.78824 17.7237 8.90482 17.8253 8.99078C17.9269 9.07673 18.0647 9.12502 18.2083 9.12502C18.352 9.12502 18.4898 9.07673 18.5914 8.99078C18.6929 8.90482 18.75 8.78824 18.75 8.66669C18.75 8.30201 18.5788 7.95228 18.274 7.69442C17.9693 7.43655 17.556 7.29169 17.125 7.29169H16.0417V6.37502C16.0417 6.25346 15.9846 6.13688 15.883 6.05093C15.7814 5.96498 15.6437 5.91669 15.5 5.91669C15.3563 5.91669 15.2186 5.96498 15.117 6.05093C15.0154 6.13688 14.9583 6.25346 14.9583 6.37502V7.29169H14.4167C13.842 7.29169 13.2909 7.48484 12.8846 7.82866C12.4783 8.17247 12.25 8.63879 12.25 9.12502C12.25 9.61125 12.4783 10.0776 12.8846 10.4214C13.2909 10.7652 13.842 10.9584 14.4167 10.9584H16.5833C16.8707 10.9584 17.1462 11.0549 17.3494 11.2268C17.5525 11.3987 17.6667 11.6319 17.6667 11.875C17.6667 12.1181 17.5525 12.3513 17.3494 12.5232C17.1462 12.6951 16.8707 12.7917 16.5833 12.7917H13.875C13.7313 12.7917 13.5936 12.7434 13.492 12.6574C13.3904 12.5715 13.3333 12.4549 13.3333 12.3334C13.3333 12.2118 13.2763 12.0952 13.1747 12.0093C13.0731 11.9233 12.9353 11.875 12.7917 11.875C12.648 11.875 12.5102 11.9233 12.4087 12.0093C12.3071 12.0952 12.25 12.2118 12.25 12.3334C12.25 12.698 12.4212 13.0478 12.726 13.3056C13.0307 13.5635 13.444 13.7084 13.875 13.7084H14.9583V14.625C14.9583 14.7466 15.0154 14.8632 15.117 14.9491C15.2186 15.0351 15.3563 15.0834 15.5 15.0834C15.6437 15.0834 15.7814 15.0351 15.883 14.9491C15.9846 14.8632 16.0417 14.7466 16.0417 14.625V13.7084H16.5833C17.158 13.7084 17.7091 13.5152 18.1154 13.1714C18.5217 12.8276 18.75 12.3613 18.75 11.875C18.75 11.3888 18.5217 10.9225 18.1154 10.5787C17.7091 10.2348 17.158 10.0417 16.5833 10.0417V10.0417Z" fill="white"/>
</svg>
