<svg width="107" height="107" viewBox="0 0 107 107" fill="none" xmlns="http://www.w3.org/2000/svg">
<g clip-path="url(#clip0_23_2)">
<path d="M73.54 71.37C72.5756 72.285 71.292 72.7873 69.9627 72.7698C68.6334 72.7524 67.3635 72.2165 66.4235 71.2765C65.4835 70.3365 64.9476 69.0665 64.9302 67.7373C64.9127 66.408 65.415 65.1244 66.33 64.16L101.2 29.29C99.4437 25.8191 97.3144 22.5498 94.85 19.54C94.6682 19.8127 94.4606 20.0672 94.23 20.3L38.44 76.09C37.982 76.6189 37.4201 77.0479 36.7892 77.3503C36.1583 77.6527 35.4719 77.8221 34.7728 77.8479C34.0736 77.8737 33.3766 77.7554 32.7252 77.5003C32.0737 77.2452 31.4817 76.8588 30.9859 76.3652C30.4902 75.8715 30.1013 75.2811 29.8435 74.6307C29.5857 73.9803 29.4645 73.2838 29.4874 72.5845C29.5103 71.8853 29.6768 71.1982 29.9766 70.5661C30.2764 69.9339 30.703 69.3702 31.23 68.91L87.02 13.09C87.2614 12.8509 87.526 12.6365 87.81 12.45C84.269 9.48891 80.3599 6.99824 76.18 5.04L41.69 39.52C41.2213 40.014 40.6583 40.4092 40.0344 40.6822C39.4105 40.9551 38.7382 41.1004 38.0573 41.1093C37.3763 41.1182 36.7004 40.9907 36.0696 40.7342C35.4387 40.4778 34.8656 40.0975 34.384 39.616C33.9025 39.1344 33.5222 38.5613 33.2658 37.9304C33.0093 37.2996 32.8818 36.6237 32.8907 35.9427C32.8996 35.2618 33.0449 34.5895 33.3178 33.9656C33.5908 33.3417 33.986 32.7787 34.48 32.31L65.48 1.31C54.0908 -1.29337 42.1624 -0.0949392 31.5188 4.72204C20.8751 9.53903 12.102 17.7094 6.54097 27.9839C0.979918 38.2585 -1.063 50.0716 0.724581 61.6169C2.51217 73.1623 8.03188 83.8044 16.4397 91.9161C24.8475 100.028 35.6807 105.163 47.2827 106.535C58.8847 107.908 70.617 105.443 80.6856 99.5172C90.7542 93.5914 98.6049 84.5312 103.037 73.7217C107.47 62.9122 108.24 50.9486 105.23 39.66L73.54 71.37Z" fill="url(#paint0_linear_23_2)"/>
</g>
<defs>
<linearGradient id="paint0_linear_23_2" x1="-6.42446e-06" y1="53.5" x2="107" y2="53.5" gradientUnits="userSpaceOnUse">
<stop stop-color="#0C61C4"/>
<stop offset="1" stop-color="#00B6FF"/>
</linearGradient>
<clipPath id="clip0_23_2">
<rect width="107" height="107" fill="white"/>
</clipPath>
</defs>
</svg>
